<svg width="24" height="24" viewBox="0 0 24 24" fill="none" xmlns="http://www.w3.org/2000/svg">
<path fill-rule="evenodd" clip-rule="evenodd" d="M5.50024 8.99994C5.50024 6.86048 6.23779 5.24848 7.39202 4.16906C8.55157 3.08467 10.1726 2.49994 12.0002 2.49994C13.8267 2.49994 15.4479 3.08966 16.608 4.17722C17.7631 5.25999 18.5002 6.87248 18.5002 8.99994C18.5002 12.1001 16.8276 15.2427 15.0942 17.6542C14.2341 18.8508 13.3731 19.8483 12.727 20.5464C12.4327 20.8644 12.1836 21.1197 12.0002 21.3028C11.8169 21.1197 11.5678 20.8644 11.2735 20.5464C10.6274 19.8483 9.76638 18.8508 8.90624 17.6542C7.17293 15.2427 5.50024 12.1001 5.50024 8.99994ZM11.6604 22.3667C11.6605 22.3668 11.6607 22.3669 12.0002 21.9999L11.6607 22.3669C11.8523 22.5443 12.1482 22.5443 12.3398 22.3669L12.0002 21.9999C12.3398 22.3669 12.3399 22.3668 12.3401 22.3667L12.3405 22.3663L12.3418 22.3651L12.3464 22.3609L12.3628 22.3454C12.3771 22.332 12.3978 22.3125 12.4244 22.287C12.4778 22.2359 12.5552 22.1611 12.6531 22.0639C12.849 21.8696 13.1275 21.5859 13.461 21.2256C14.1274 20.5054 15.0164 19.4758 15.9062 18.2378C17.6729 15.78 19.5002 12.4227 19.5002 8.99994C19.5002 6.6274 18.6704 4.73989 17.292 3.44766C15.9186 2.16021 14.0398 1.49994 12.0002 1.49994C9.96191 1.49994 8.08293 2.15378 6.70898 3.43868C5.3297 4.72855 4.50024 6.61655 4.50024 8.99994C4.50024 12.4227 6.32756 15.78 8.09424 18.2378C8.98411 19.4758 9.87305 20.5054 10.5395 21.2256C10.873 21.5859 11.1515 21.8696 11.3474 22.0639C11.4453 22.1611 11.5227 22.2359 11.576 22.287C11.6027 22.3125 11.6234 22.332 11.6376 22.3454L11.6541 22.3609L11.6587 22.3651L11.66 22.3663L11.6604 22.3667ZM9.50018 8.99999C9.50018 7.61928 10.6195 6.49999 12.0002 6.49999C13.3809 6.49999 14.5002 7.61928 14.5002 8.99999C14.5002 10.3807 13.3809 11.5 12.0002 11.5C10.6195 11.5 9.50018 10.3807 9.50018 8.99999ZM12.0002 5.49999C10.0672 5.49999 8.50018 7.067 8.50018 8.99999C8.50018 10.933 10.0672 12.5 12.0002 12.5C13.9332 12.5 15.5002 10.933 15.5002 8.99999C15.5002 7.067 13.9332 5.49999 12.0002 5.49999Z" fill="white"/>
</svg>
